<svg width="46" height="46" viewBox="0 0 46 46" fill="none" xmlns="http://www.w3.org/2000/svg">
<path d="M26.0625 41.6854C26.0625 43.538 24.5619 45.0386 22.7093 45.0386C21.7867 45.0423 20.9493 44.6644 20.3417 44.0567C19.734 43.4491 19.3594 42.6113 19.3602 41.6858L19.3561 26.0718L3.74474 26.0666C2.81475 26.0703 1.97812 25.6932 1.37121 25.0862C0.764306 24.4793 0.387861 23.6435 0.391194 22.7131C0.391195 20.8605 1.89179 19.3599 3.74437 19.3599L19.3654 19.3599L19.3617 3.74262C19.3617 1.89003 20.8623 0.389439 22.7148 0.389439C24.5674 0.389439 26.068 1.89003 26.068 3.74262L26.0625 19.3655L41.6835 19.3655C43.536 19.3655 45.0366 20.8661 45.0366 22.7186C45.0366 24.5712 43.536 26.0718 41.6835 26.0718L26.0625 26.0718V41.6854Z" fill="#E8AA31"/>
</svg>
