<svg width="61" height="61" viewBox="0 0 61 61" fill="none" xmlns="http://www.w3.org/2000/svg">
<path d="M0 30.5C0 13.6535 13.6535 0 30.5 0C47.3465 0 61 13.6535 61 30.5C61 47.3465 47.3465 61 30.5 61C13.6535 61 0 47.3465 0 30.5ZM20.8496 24.7932L26.4611 30.3928L20.8496 36.0996C19.7416 37.2195 19.7416 39.0305 20.8496 40.0432C21.9695 41.2584 23.7805 41.2584 24.7932 40.0432L30.3928 34.5389L36.0996 40.0432C37.2195 41.2584 39.0305 41.2584 40.0432 40.0432C41.2584 39.0305 41.2584 37.2195 40.0432 36.0996L34.5389 30.3928L40.0432 24.7932C41.2584 23.7805 41.2584 21.9695 40.0432 20.8496C39.0305 19.7416 37.2195 19.7416 36.0996 20.8496L30.3928 26.4611L24.7932 20.8496C23.7805 19.7416 21.9695 19.7416 20.8496 20.8496C19.7416 21.9695 19.7416 23.7805 20.8496 24.7932Z" fill="white"/>
</svg>
