<svg width="33" height="33" viewBox="0 0 33 33" fill="none" xmlns="http://www.w3.org/2000/svg">
<g clip-path="url(#clip0_1434_936)">
<path d="M31.6014 2.60408C33.0129 4.01367 33.0129 6.29918 31.6014 7.70877L29.6678 9.64881L23.3514 3.33369L25.2914 1.39623C26.7029 -0.0135868 28.9846 -0.0135868 30.3961 1.39623L31.6014 2.60408ZM11.1117 15.5785L21.8947 4.79162L28.2111 11.1054L17.4217 21.8885C17.0285 22.2881 16.5451 22.5846 16.0102 22.765L10.2867 24.6728C9.67441 24.8533 9.12012 24.7115 8.70117 24.241C8.28867 23.8801 8.14687 23.2678 8.32734 22.7135L10.2352 16.99C10.4156 16.4551 10.7121 15.9717 11.1117 15.5785ZM12.375 4.06717C13.5158 4.06717 14.4375 5.04879 14.4375 6.12967C14.4375 7.3285 13.5158 8.19217 12.375 8.19217H6.1875C5.04861 8.19217 4.125 9.17186 4.125 10.2547V26.8127C4.125 27.9535 5.04861 28.8752 6.1875 28.8752H22.6875C23.8283 28.8752 24.75 27.9535 24.75 26.8127V20.5672C24.75 19.4844 25.6717 18.5047 26.8125 18.5047C27.9533 18.5047 28.875 19.4844 28.875 20.5672V26.8127C28.875 30.2287 26.1035 33.0002 22.6875 33.0002H6.1875C2.7702 33.0002 0 30.2287 0 26.8127V10.2547C0 6.83865 2.7702 4.06717 6.1875 4.06717H12.375Z" fill="black"/>
</g>
<defs>
<clipPath id="clip0_1434_936">
<rect width="33" height="33" fill="white"/>
</clipPath>
</defs>
</svg>
