<svg width="28" height="25" viewBox="0 0 28 25" fill="none" xmlns="http://www.w3.org/2000/svg">
<path d="M19.5426 0C17.2252 0 15.0558 0.980888 13.6114 2.62435C12.1671 0.980832 9.9978 0 7.68033 0C3.4454 0 0 3.22087 0 7.17994C0 10.2801 1.9774 13.8658 5.87715 17.8376C8.87831 20.8942 12.1431 23.2608 13.0722 23.9134L13.6113 24.292L14.1503 23.9134C15.0794 23.2609 18.3443 20.8943 21.3456 17.8378C25.2454 13.8659 27.2229 10.2801 27.2229 7.17994C27.2229 3.22087 23.7775 0 19.5426 0ZM20.0232 16.703C17.5547 19.217 14.8989 21.2494 13.6113 22.186C12.3237 21.2494 9.66802 19.217 7.19947 16.7029C3.66378 13.102 1.79492 9.80893 1.79492 7.17994C1.79492 4.14616 4.43512 1.67797 7.68033 1.67797C9.81592 1.67797 11.7878 2.76608 12.8265 4.51772L13.6114 5.84142L14.3964 4.51772C15.435 2.76614 17.4069 1.67797 19.5426 1.67797C22.7878 1.67797 25.428 4.14611 25.428 7.17994C25.428 9.80904 23.5591 13.1021 20.0232 16.703Z" fill="#E8AA31"/>
<path d="M4.65541 4.11295C4.26659 4.05074 3.87866 4.06717 3.48561 4.06717C3.39067 4.06717 3.29573 4.06717 3.20079 4.06717C3.12659 4.06717 3.43903 3.97125 3.48815 3.95019C4.79685 3.38932 6.14256 3.01125 7.54429 2.73971C8.19878 2.61292 8.87003 2.5164 9.5126 2.33791C9.92815 2.22248 10.3757 2.27078 10.7867 2.37351C11.5572 2.56615 11.8802 3.25035 11.9895 3.97562C12.1174 4.82424 12.2649 6.99401 13.5306 6.80347C13.9199 6.74487 14.3213 6.47444 14.619 6.22875C14.9395 5.9642 15.0878 5.53231 15.2904 5.18102C15.4753 4.86031 15.6714 4.55448 15.8447 4.23247C16.1026 3.75354 16.5829 3.52856 17.1061 3.42633C17.8254 3.28578 18.4972 3.15168 19.2346 3.15168C19.7803 3.15168 20.4232 3.0553 20.9512 3.18728C21.3098 3.27695 21.8188 3.41164 22.1159 3.6374C22.4298 3.876 22.8532 4.02247 22.9754 4.43337C23.1198 4.91919 23.3454 5.39114 23.3798 5.90578C23.4006 6.21849 23.502 6.57878 23.5807 6.88231C23.6429 7.12252 23.6793 7.37435 23.7332 7.61724C23.8104 7.96458 23.873 8.35979 23.8299 8.71583C23.7609 9.28443 23.3859 9.82532 23.1407 10.3256C23.0572 10.4959 22.9195 10.6907 22.9195 10.8876" stroke="#E8AA31" stroke-width="3" stroke-linecap="round"/>
<path d="M22.8739 10.9333C22.6592 11.4165 22.3889 11.8705 22.1873 12.36C21.9916 12.8354 21.7677 13.1933 21.5033 13.634C20.9379 14.5763 20.3093 15.5464 19.4231 16.2178C18.8391 16.6601 18.1571 16.9708 17.5387 17.3672C16.8963 17.779 16.1925 18.1394 15.6009 18.6235C15.3592 18.8212 15.0603 18.9817 14.838 19.1982C14.6752 19.3567 14.591 19.5947 14.4972 19.7933C14.3766 20.0487 14.4237 20.4718 14.2022 20.6477C14.0642 20.7573 13.9201 20.8614 13.7902 20.9809C13.7412 21.0259 13.5748 21.148 13.7292 21.0851C14.0845 20.9404 14.4236 20.5678 14.6701 20.2917C14.947 19.9817 15.3042 19.7598 15.5856 19.4576C15.7052 19.3292 15.748 19.143 15.8247 18.9897" stroke="#E8AA31" stroke-width="3" stroke-linecap="round"/>
<path d="M21.5465 4.93687C21.3052 4.69557 21.2756 4.64641 20.9769 4.60627C20.6583 4.56349 20.369 4.5249 20.0436 4.5249C19.2808 4.5249 21.5619 4.3418 22.3247 4.3418C22.6664 4.3418 22.9778 4.55835 23.3114 4.61899C23.4761 4.64894 23.7017 4.71655 23.8251 4.83515C23.9422 4.94777 23.9829 5.11763 24.1328 5.18863C24.4106 5.32025 24.3387 5.87351 24.3387 6.12701C24.3387 6.49235 24.3387 6.8577 24.3387 7.22305C24.3387 7.37155 24.3472 7.52252 24.3362 7.67063C24.3131 7.98204 24.2147 8.24458 24.1658 8.54289C24.1282 8.77231 24.0799 8.98627 23.9497 9.18882C23.7538 9.49352 23.2083 8.37388 23.1486 8.27841" stroke="#E8AA31" stroke-width="3" stroke-linecap="round"/>
<path d="M21.4092 5.57774C20.5986 5.57774 19.8689 5.42588 19.0747 5.25731C18.2868 5.09009 17.5483 5.07422 16.7453 5.07422C16.2341 5.07422 15.6901 5.01728 15.1889 5.13016C14.6335 5.25526 14.0734 5.38942 13.5105 5.47601C12.7618 5.59121 12.0273 5.80151 11.2727 5.87781C10.4764 5.95834 9.65203 5.89816 8.85171 5.89816C8.55239 5.89816 6.85086 6.11231 7.20383 5.37429C7.44312 4.87396 8.07999 4.53685 8.59741 4.43337C8.92007 4.36884 9.24226 4.29636 9.56885 4.25282C9.75972 4.22737 9.63025 4.2045 9.49256 4.2045C8.75405 4.2045 8.03508 4.32729 7.29792 4.33928C6.67605 4.34939 6.05575 4.31863 5.44405 4.45626C4.94831 4.5678 4.38509 4.60854 3.91314 4.79957C3.68372 4.89243 3.16484 5.06519 3.06377 5.31326C2.96225 5.56245 2.81101 5.76484 2.74335 6.03548C2.57719 6.70011 2.87526 7.43873 2.91373 8.09279C2.94202 8.57375 2.88042 9.0304 3.0358 9.49655C3.15869 9.86524 3.32861 10.2449 3.51134 10.5875C3.73505 11.007 3.96616 11.4056 4.19796 11.8209C4.30758 12.0173 4.43339 12.1962 4.56416 12.3778C4.73038 12.6087 4.81506 12.8645 5.01173 13.0746C5.69139 13.8006 5.94638 14.8433 6.62402 15.5566C6.72864 15.6667 6.82027 15.7869 6.95461 15.8668C7.07436 15.9381 7.2468 15.9797 7.33606 16.0957C7.60039 16.4393 7.8969 16.7599 8.29479 16.9502C8.63868 17.1146 8.94677 17.3302 9.26114 17.5478C9.49874 17.7123 9.79605 17.8568 9.94267 18.1174C10.1511 18.488 10.4435 19.0706 10.8327 19.2847C11.1036 19.4337 11.4274 19.5128 11.7152 19.6305C12.0639 19.7732 12.3475 20.0129 12.7425 19.9967C13.1626 19.9796 13.5644 19.7413 13.9123 19.5288C14.5746 19.1244 15.1171 18.6909 15.5857 18.064C16.173 17.2783 16.571 16.4103 16.9843 15.5261C17.3311 14.7842 17.8049 14.057 18.266 13.3798C18.8492 12.5233 19.6018 11.9028 20.3004 11.1521C20.6397 10.7875 20.9605 10.403 21.2566 10.0026C21.5654 9.58516 21.9159 9.19991 22.223 8.7845C22.6811 8.1647 23.0113 7.51621 23.0113 6.74499C23.0113 6.12686 22.2179 6.15953 21.783 6.17535C19.8218 6.24667 18.6797 8.20468 17.8718 9.74577C17.3066 10.8241 16.9643 11.9969 16.3562 13.0568C16.0455 13.5984 15.7548 14.1478 15.4229 14.6767C15.1556 15.1026 14.6952 15.6639 14.6803 16.1974C14.6769 16.3222 14.7073 16.4647 14.6346 16.5738C14.3525 16.9968 13.8022 17.2461 13.4037 17.5402C13.2393 17.6616 13.2952 17.5595 13.3529 17.4359C13.4252 17.281 13.4826 17.1195 13.5563 16.9654C13.9323 16.1792 14.4622 15.4122 14.9601 14.7021C15.9299 13.3191 17.2073 12.1919 18.2558 10.8723C18.843 10.1335 19.281 9.32585 19.8096 8.55054C19.9639 8.32426 20.1091 8.0939 20.2648 7.86901C20.4208 7.64374 20.6355 7.48033 20.748 7.22308C20.7533 7.21088 20.8369 7.0535 20.7836 7.07304C20.5524 7.15783 20.3319 7.38264 20.1301 7.51807C19.5555 7.90364 18.7407 8.10891 18.0499 7.97073C17.4532 7.85141 16.9021 7.35541 16.3918 7.03998C16.0215 6.81107 15.8253 6.76787 15.4026 6.76787C14.8423 6.76787 14.2852 6.75472 13.7318 6.85942C13.0071 6.99653 12.2883 7.21748 11.5473 7.22562C10.7524 7.23436 9.95689 7.22562 9.16196 7.22562C8.5317 7.22562 7.87166 7.28288 7.24451 7.21545C6.55977 7.14182 5.87216 6.78859 5.21518 6.59495C5.02767 6.53968 4.82832 6.46836 4.66588 6.3559C4.4569 6.21122 4.56416 6.73085 4.56416 6.87468C4.56416 7.36161 4.53387 7.85907 4.57433 8.34455C4.60664 8.73223 4.73497 9.09334 4.81592 9.47112C4.9187 9.95076 5.14719 10.4079 5.3881 10.8342C5.57974 11.1732 5.86176 11.4527 6.02895 11.8056C6.32265 12.4257 6.76886 12.9888 7.12245 13.5781C7.5677 14.3202 8.02153 15.0986 8.75253 15.5998C9.44344 16.0736 10.1362 16.6168 10.937 16.8942C11.265 17.0079 11.7063 17.1279 11.9593 17.3876C12.1104 17.5427 12.1799 17.7995 12.3357 17.9725C12.4777 18.1303 12.5034 18.3361 12.712 18.4404C13.038 18.6034 13.1406 18.1925 13.2257 17.9623C13.6969 16.6879 13.5062 15.3947 13.6275 14.0664C13.7167 13.0901 14.0142 12.1545 14.4159 11.264C14.8093 10.3917 15.3503 9.38709 16.107 8.77687C16.4843 8.47262 16.8693 8.18609 17.2666 7.9097C17.2869 7.89557 17.6087 7.62066 17.4904 7.59436C17.0347 7.49309 16.4343 7.58069 15.9697 7.59436C15.3699 7.612 14.7575 7.87141 14.2582 8.19452C13.6263 8.60339 12.9816 9.07132 12.4959 9.65422C12.0372 10.2046 11.7245 10.9926 11.5499 11.681C11.3342 12.531 11.3218 13.4041 11.5219 14.2546C11.5757 14.4831 11.622 14.7255 11.7508 14.9259C11.8881 15.1395 11.8894 14.9672 11.8067 14.814C11.4871 14.2221 11.1742 13.6844 10.7386 13.1611C10.0809 12.3708 9.42605 11.5851 8.78559 10.7808C8.05554 9.86397 7.18917 8.98483 6.71556 7.89189C6.70318 7.86332 6.42274 7.34457 6.40531 7.38329C6.35002 7.50617 6.39226 7.75162 6.40023 7.87918C6.42915 8.34199 6.58058 8.79131 6.8122 9.19138C7.32276 10.0733 7.89259 10.9147 8.53638 11.7039C8.95012 12.2111 9.37715 12.7599 9.71634 13.3213C9.91196 13.645 10.0782 13.976 10.258 14.308C10.3575 14.4916 10.3487 14.0971 10.3521 14.0664C10.3954 13.6767 10.4565 13.2891 10.4665 12.8966C10.4981 11.6656 10.4691 10.4306 10.4691 9.19901C10.4691 8.77225 10.3551 8.41853 10.286 8.00379" stroke="#E8AA31" stroke-width="3" stroke-linecap="round"/>
</svg>
