<svg width="29" height="33" viewBox="0 0 29 33" fill="none" xmlns="http://www.w3.org/2000/svg">
<path d="M8.75179 1.14018C9.10134 0.441375 9.81987 0 10.6031 0H18.3969C19.1801 0 19.8987 0.441375 20.2482 1.14018L20.7143 2.0625H26.9286C28.0743 2.0625 29 2.98611 29 4.125C29 5.26389 28.0743 6.1875 26.9286 6.1875H2.07143C0.927612 6.1875 0 5.26389 0 4.125C0 2.98611 0.927612 2.0625 2.07143 2.0625H8.28571L8.75179 1.14018ZM25.5562 30.0416C25.4527 31.7303 24.0998 33 22.4556 33H6.54442C4.90346 33 3.54538 31.7303 3.4431 30.0416L2.01317 8.25H26.9286L25.5562 30.0416Z" fill="#FF0000"/>
</svg>
